<?xml version="1.0" encoding="utf-8" standalone="no"?>
<!DOCTYPE svg PUBLIC "-//W3C//DTD SVG 1.1//EN"
  "http://www.w3.org/Graphics/SVG/1.1/DTD/svg11.dtd">
<svg xmlns:xlink="http://www.w3.org/1999/xlink" width="288pt" height="216pt" viewBox="0 0 288 216" xmlns="http://www.w3.org/2000/svg" version="1.1">
 <metadata>
  <rdf:RDF xmlns:dc="http://purl.org/dc/elements/1.1/" xmlns:cc="http://creativecommons.org/ns#" xmlns:rdf="http://www.w3.org/1999/02/22-rdf-syntax-ns#">
   <cc:Work>
    <dc:type rdf:resource="http://purl.org/dc/dcmitype/StillImage"/>
    <dc:date>2024-12-14T01:43:08.562260</dc:date>
    <dc:format>image/svg+xml</dc:format>
    <dc:creator>
     <cc:Agent>
      <dc:title>Matplotlib v3.9.2, https://matplotlib.org/</dc:title>
     </cc:Agent>
    </dc:creator>
   </cc:Work>
  </rdf:RDF>
 </metadata>
 <defs>
  <style type="text/css">*{stroke-linejoin: round; stroke-linecap: butt}</style>
 </defs>
 <g id="figure_1">
  <g id="patch_1">
   <path d="M 0 216 
L 288 216 
L 288 0 
L 0 0 
L 0 216 
z
" style="fill: none"/>
  </g>
  <g id="axes_1">
   <g id="patch_2">
    <path d="M 41.080552 187.249448 
L 275.09976 187.249448 
L 275.09976 15.54274 
L 41.080552 15.54274 
L 41.080552 187.249448 
z
" style="fill: none"/>
   </g>
   <g id="PathCollection_1">
    <path d="M 77.641234 67.054752 
L 75.536377 63.620618 
L 74.105931 60.186484 
L 75.685011 56.75235 
L 78.523626 54.383629 
L 80.126877 53.318216 
L 83.20401 52.104252 
L 87.884394 50.971546 
L 92.564778 50.732177 
L 97.245162 50.777662 
L 101.925546 51.030281 
L 106.605931 51.437714 
L 111.286315 51.963742 
L 115.966699 52.582733 
L 120.647083 53.276236 
L 120.896512 53.318216 
L 125.327467 54.235632 
L 130.007851 55.246877 
L 134.688236 56.290293 
L 136.655176 56.75235 
L 139.36862 57.521469 
L 144.049004 58.879597 
L 148.544411 60.186484 
L 148.729388 60.25066 
L 153.409772 61.935432 
L 158.090156 63.591671 
L 158.169234 63.620618 
L 162.77054 65.594852 
L 166.217151 67.054752 
L 167.450925 67.664323 
L 172.131309 69.9898 
L 173.127165 70.488886 
L 176.811693 72.620563 
L 179.064096 73.923021 
L 181.492077 75.535986 
L 184.219141 77.357155 
L 186.172461 78.849326 
L 188.686851 80.791289 
L 190.852845 82.69869 
L 192.558256 84.225423 
L 195.533229 87.257226 
L 195.919601 87.659557 
L 198.744833 91.093691 
L 200.213614 93.153831 
L 201.16195 94.527825 
L 203.144143 97.96196 
L 204.791947 101.396094 
L 204.893998 101.673445 
L 206.000792 104.830228 
L 206.869368 108.264362 
L 207.398064 111.698496 
L 207.579049 115.13263 
L 207.404834 118.566764 
L 206.868828 122.000899 
L 205.965676 125.435033 
L 204.893998 128.327542 
L 204.671022 128.869167 
L 202.856688 132.303301 
L 200.629315 135.737435 
L 200.213614 136.278983 
L 197.738962 139.171569 
L 195.533229 141.405276 
L 194.198635 142.605704 
L 190.852845 145.263995 
L 189.739285 146.039838 
L 186.172461 148.264814 
L 183.924967 149.473972 
L 181.492077 150.657244 
L 176.811693 152.573328 
L 175.793356 152.908106 
L 172.131309 154.005588 
L 167.450925 155.064007 
L 162.77054 155.763756 
L 158.090156 156.083067 
L 153.409772 155.996121 
L 148.729388 155.472346 
L 144.049004 154.475521 
L 139.36862 152.962659 
L 139.24305 152.908106 
L 134.688236 150.656268 
L 132.823799 149.473972 
L 130.007851 147.4377 
L 128.430497 146.039838 
L 125.327467 142.907479 
L 125.075885 142.605704 
L 122.517919 139.171569 
L 120.647083 136.368106 
L 120.283592 135.737435 
L 118.454911 132.303301 
L 116.736393 128.869167 
L 115.966699 127.28356 
L 115.174348 125.435033 
L 113.701905 122.000899 
L 112.184295 118.566764 
L 111.286315 116.642594 
L 110.653194 115.13263 
L 109.10165 111.698496 
L 107.389674 108.264362 
L 106.605931 106.841295 
L 105.596028 104.830228 
L 103.671202 101.396094 
L 101.925546 98.633899 
L 101.534191 97.96196 
L 99.323376 94.527825 
L 97.245162 91.666361 
L 96.858058 91.093691 
L 94.327186 87.659557 
L 92.564778 85.493197 
L 91.595659 84.225423 
L 88.769994 80.791289 
L 87.884394 79.765814 
L 85.911055 77.357155 
L 83.20401 74.213086 
L 82.96596 73.923021 
L 80.229698 70.488886 
L 78.523626 68.255413 
z
" clip-path="url(#p5ca389c0b5)" style="fill-opacity: 0.1"/>
   </g>
   <g id="PathCollection_2">
    <path d="M 101.3262 94.527825 
L 100.17946 91.093691 
L 99.181343 87.659557 
L 98.400641 84.225423 
L 97.930545 80.791289 
L 97.895321 77.357155 
L 98.458489 73.923021 
L 99.832315 70.488886 
L 101.925546 67.550624 
L 102.360683 67.054752 
L 106.605931 63.943646 
L 107.17743 63.620618 
L 111.286315 61.994604 
L 115.966699 60.664601 
L 118.528483 60.186484 
L 120.647083 59.891749 
L 125.327467 59.539994 
L 130.007851 59.461628 
L 134.688236 59.626024 
L 139.36862 60.005563 
L 140.833501 60.186484 
L 144.049004 60.674885 
L 148.729388 61.592401 
L 153.409772 62.683236 
L 156.922818 63.620618 
L 158.090156 64.000521 
L 162.77054 65.700845 
L 166.229602 67.054752 
L 167.450925 67.636308 
L 172.131309 70.016731 
L 173.007636 70.488886 
L 176.811693 72.974895 
L 178.200115 73.923021 
L 181.492077 76.663112 
L 182.292677 77.357155 
L 185.492375 80.791289 
L 186.172461 81.716217 
L 187.941064 84.225423 
L 189.800555 87.659557 
L 190.852845 90.361644 
L 191.125364 91.093691 
L 191.912032 94.527825 
L 192.262649 97.96196 
L 192.197493 101.396094 
L 191.736481 104.830228 
L 190.899633 108.264362 
L 190.852845 108.401826 
L 189.591639 111.698496 
L 187.906707 115.13263 
L 186.172461 118.066853 
L 185.83713 118.566764 
L 183.197895 122.000899 
L 181.492077 123.974768 
L 180.044436 125.435033 
L 176.811693 128.405313 
L 176.222307 128.869167 
L 172.131309 131.853077 
L 171.393422 132.303301 
L 167.450925 134.559099 
L 164.90504 135.737435 
L 162.77054 136.67117 
L 158.090156 138.233868 
L 153.970753 139.171569 
L 153.409772 139.293302 
L 148.729388 139.805024 
L 144.049004 139.788628 
L 139.36862 139.196554 
L 139.271081 139.171569 
L 134.688236 137.899571 
L 130.007851 135.851048 
L 129.819162 135.737435 
L 125.327467 132.815334 
L 124.72083 132.303301 
L 120.923274 128.869167 
L 120.647083 128.604838 
L 117.962753 125.435033 
L 115.966699 122.953223 
L 115.327783 122.000899 
L 113.092813 118.566764 
L 111.286315 115.712548 
L 110.973185 115.13263 
L 109.139167 111.698496 
L 107.3314 108.264362 
L 106.605931 106.873544 
L 105.68145 104.830228 
L 104.151812 101.396094 
L 102.663067 97.96196 
L 101.925546 96.179928 
z
" clip-path="url(#p5ca389c0b5)" style="fill: #4067b1; fill-opacity: 0.1"/>
   </g>
   <g id="PathCollection_3">
    <path d="M 107.445116 108.264362 
L 106.892877 104.830228 
L 107.722058 101.396094 
L 109.260701 97.96196 
L 111.221671 94.527825 
L 111.286315 94.442992 
L 113.968127 91.093691 
L 115.966699 88.830813 
L 117.055898 87.659557 
L 120.617293 84.225423 
L 120.647083 84.200423 
L 124.902153 80.791289 
L 125.327467 80.481901 
L 129.838803 77.357155 
L 130.007851 77.251242 
L 134.688236 74.56183 
L 135.884692 73.923021 
L 139.36862 72.273877 
L 143.422505 70.488886 
L 144.049004 70.244011 
L 148.729388 68.773332 
L 153.409772 67.567999 
L 156.637949 67.054752 
L 158.090156 66.856918 
L 162.77054 66.797759 
L 164.614194 67.054752 
L 167.450925 67.776816 
L 171.384651 70.488886 
L 172.131309 72.589743 
L 172.431047 73.923021 
L 172.131309 75.34146 
L 171.677112 77.357155 
L 169.784102 80.791289 
L 167.450925 83.943448 
L 167.229847 84.225423 
L 163.853515 87.659557 
L 162.77054 88.636268 
L 159.900398 91.093691 
L 158.090156 92.519107 
L 155.397803 94.527825 
L 153.409772 95.922887 
L 150.335723 97.96196 
L 148.729388 98.982665 
L 144.699374 101.396094 
L 144.049004 101.775039 
L 139.36862 104.268889 
L 138.202154 104.830228 
L 134.688236 106.494817 
L 130.60281 108.264362 
L 130.007851 108.521513 
L 125.327467 110.133026 
L 120.647083 111.427613 
L 118.633322 111.698496 
L 115.966699 112.061612 
L 111.76003 111.698496 
L 111.286315 111.626179 
z
" clip-path="url(#p5ca389c0b5)" style="fill: #6ccef5; fill-opacity: 0.1"/>
   </g>
   <g id="PathCollection_4">
    <path d="M 107.541599 108.264362 
L 107.538489 104.830228 
L 109.034395 101.396094 
L 111.074022 97.96196 
L 111.286315 97.703574 
L 113.98467 94.527825 
L 115.966699 92.392666 
L 117.212655 91.093691 
L 120.647083 87.841479 
L 120.84556 87.659557 
L 125.063243 84.225423 
L 125.327467 84.028897 
L 129.79672 80.791289 
L 130.007851 80.650531 
L 134.688236 77.678234 
L 135.21871 77.357155 
L 139.36862 75.096062 
L 141.607285 73.923021 
L 144.049004 72.769587 
L 148.729388 70.689019 
L 149.282803 70.488886 
L 153.409772 69.172109 
L 158.090156 67.969908 
L 162.77054 67.294388 
L 167.450925 67.877847 
L 170.625681 70.488886 
L 170.522822 73.923021 
L 168.805952 77.357155 
L 167.450925 79.109494 
L 166.100385 80.791289 
L 162.786209 84.225423 
L 162.77054 84.239032 
L 158.711253 87.659557 
L 158.090156 88.141334 
L 154.166864 91.093691 
L 153.409772 91.628417 
L 149.176449 94.527825 
L 148.729388 94.819946 
L 144.049004 97.745312 
L 143.680297 97.96196 
L 139.36862 100.39517 
L 137.515918 101.396094 
L 134.688236 102.885885 
L 130.817238 104.830228 
L 130.007851 105.232247 
L 125.327467 107.234175 
L 122.573128 108.264362 
L 120.647083 108.984401 
L 115.966699 110.193112 
L 111.286315 110.539618 
z
" clip-path="url(#p5ca389c0b5)" style="fill: #b9123e; fill-opacity: 0.1"/>
   </g>
   <g id="PathCollection_5">
    <defs>
     <path id="mcb3d2e3e12" d="M -1.5 0 
L 1.5 0 
M 0 1.5 
L 0 -1.5 
" style="stroke: #000000"/>
    </defs>
    <g clip-path="url(#p5ca389c0b5)">
     <use xlink:href="#mcb3d2e3e12" x="141.708812" y="86.262239" style="stroke: #000000"/>
    </g>
   </g>
   <g id="matplotlib.axis_1">
    <g id="xtick_1">
     <g id="line2d_1">
      <defs>
       <path id="m83828d9982" d="M 0 0 
L 0 -4 
" style="stroke: #000000"/>
      </defs>
      <g>
       <use xlink:href="#m83828d9982" x="41.080553" y="187.249448" style="stroke: #000000"/>
      </g>
     </g>
     <g id="text_1">
      <!-- $\mathdefault{0.40}$ -->
      <g transform="translate(31.045553 197.588041) scale(0.09 -0.09)">
       <defs>
        <path id="DejaVuSerif-30" d="M 2034 219 
Q 2513 219 2750 744 
Q 2988 1269 2988 2328 
Q 2988 3391 2750 3916 
Q 2513 4441 2034 4441 
Q 1556 4441 1318 3916 
Q 1081 3391 1081 2328 
Q 1081 1269 1318 744 
Q 1556 219 2034 219 
z
M 2034 -91 
Q 1275 -91 848 546 
Q 422 1184 422 2328 
Q 422 3475 848 4112 
Q 1275 4750 2034 4750 
Q 2797 4750 3222 4112 
Q 3647 3475 3647 2328 
Q 3647 1184 3222 546 
Q 2797 -91 2034 -91 
z
" transform="scale(0.015625)"/>
        <path id="DejaVuSerif-2e" d="M 603 325 
Q 603 500 722 622 
Q 841 744 1019 744 
Q 1191 744 1312 622 
Q 1434 500 1434 325 
Q 1434 153 1312 31 
Q 1191 -91 1019 -91 
Q 841 -91 722 29 
Q 603 150 603 325 
z
" transform="scale(0.015625)"/>
        <path id="DejaVuSerif-34" d="M 2234 1581 
L 2234 4063 
L 641 1581 
L 2234 1581 
z
M 3609 0 
L 1484 0 
L 1484 331 
L 2234 331 
L 2234 1247 
L 197 1247 
L 197 1588 
L 2241 4750 
L 2859 4750 
L 2859 1581 
L 3750 1581 
L 3750 1247 
L 2859 1247 
L 2859 331 
L 3609 331 
L 3609 0 
z
" transform="scale(0.015625)"/>
       </defs>
       <use xlink:href="#DejaVuSerif-30" transform="translate(0 0.78125)"/>
       <use xlink:href="#DejaVuSerif-2e" transform="translate(63.623047 0.78125)"/>
       <use xlink:href="#DejaVuSerif-34" transform="translate(95.410156 0.78125)"/>
       <use xlink:href="#DejaVuSerif-30" transform="translate(159.033203 0.78125)"/>
      </g>
     </g>
    </g>
    <g id="xtick_2">
     <g id="line2d_2">
      <g>
       <use xlink:href="#m83828d9982" x="70.332953" y="187.249448" style="stroke: #000000"/>
      </g>
     </g>
     <g id="text_2">
      <!-- $\mathdefault{0.45}$ -->
      <g transform="translate(60.297953 197.588041) scale(0.09 -0.09)">
       <defs>
        <path id="DejaVuSerif-35" d="M 3219 4666 
L 3219 4153 
L 1081 4153 
L 1081 2816 
Q 1244 2928 1461 2984 
Q 1678 3041 1947 3041 
Q 2703 3041 3140 2622 
Q 3578 2203 3578 1478 
Q 3578 738 3136 323 
Q 2694 -91 1894 -91 
Q 1572 -91 1234 -12 
Q 897 66 544 225 
L 544 1131 
L 897 1131 
Q 925 688 1179 453 
Q 1434 219 1894 219 
Q 2388 219 2653 544 
Q 2919 869 2919 1478 
Q 2919 2084 2655 2407 
Q 2391 2731 1894 2731 
Q 1613 2731 1398 2631 
Q 1184 2531 1019 2322 
L 750 2322 
L 750 4666 
L 3219 4666 
z
" transform="scale(0.015625)"/>
       </defs>
       <use xlink:href="#DejaVuSerif-30" transform="translate(0 0.78125)"/>
       <use xlink:href="#DejaVuSerif-2e" transform="translate(63.623047 0.78125)"/>
       <use xlink:href="#DejaVuSerif-34" transform="translate(95.410156 0.78125)"/>
       <use xlink:href="#DejaVuSerif-35" transform="translate(159.033203 0.78125)"/>
      </g>
     </g>
    </g>
    <g id="xtick_3">
     <g id="line2d_3">
      <g>
       <use xlink:href="#m83828d9982" x="99.585354" y="187.249448" style="stroke: #000000"/>
      </g>
     </g>
     <g id="text_3">
      <!-- $\mathdefault{0.50}$ -->
      <g transform="translate(89.550354 197.588041) scale(0.09 -0.09)">
       <use xlink:href="#DejaVuSerif-30" transform="translate(0 0.78125)"/>
       <use xlink:href="#DejaVuSerif-2e" transform="translate(63.623047 0.78125)"/>
       <use xlink:href="#DejaVuSerif-35" transform="translate(95.410156 0.78125)"/>
       <use xlink:href="#DejaVuSerif-30" transform="translate(159.033203 0.78125)"/>
      </g>
     </g>
    </g>
    <g id="xtick_4">
     <g id="line2d_4">
      <g>
       <use xlink:href="#m83828d9982" x="128.837755" y="187.249448" style="stroke: #000000"/>
      </g>
     </g>
     <g id="text_4">
      <!-- $\mathdefault{0.55}$ -->
      <g transform="translate(118.802755 197.588041) scale(0.09 -0.09)">
       <use xlink:href="#DejaVuSerif-30" transform="translate(0 0.78125)"/>
       <use xlink:href="#DejaVuSerif-2e" transform="translate(63.623047 0.78125)"/>
       <use xlink:href="#DejaVuSerif-35" transform="translate(95.410156 0.78125)"/>
       <use xlink:href="#DejaVuSerif-35" transform="translate(159.033203 0.78125)"/>
      </g>
     </g>
    </g>
    <g id="xtick_5">
     <g id="line2d_5">
      <g>
       <use xlink:href="#m83828d9982" x="158.090156" y="187.249448" style="stroke: #000000"/>
      </g>
     </g>
     <g id="text_5">
      <!-- $\mathdefault{0.60}$ -->
      <g transform="translate(148.055156 197.588041) scale(0.09 -0.09)">
       <defs>
        <path id="DejaVuSerif-36" d="M 2094 219 
Q 2534 219 2771 542 
Q 3009 866 3009 1472 
Q 3009 2078 2771 2401 
Q 2534 2725 2094 2725 
Q 1647 2725 1412 2412 
Q 1178 2100 1178 1509 
Q 1178 888 1415 553 
Q 1653 219 2094 219 
z
M 1075 2569 
Q 1288 2803 1556 2918 
Q 1825 3034 2163 3034 
Q 2859 3034 3264 2615 
Q 3669 2197 3669 1472 
Q 3669 763 3233 336 
Q 2797 -91 2069 -91 
Q 1278 -91 853 498 
Q 428 1088 428 2181 
Q 428 3406 931 4078 
Q 1434 4750 2350 4750 
Q 2597 4750 2869 4703 
Q 3141 4656 3425 4563 
L 3425 3794 
L 3072 3794 
Q 3034 4109 2831 4275 
Q 2628 4441 2284 4441 
Q 1678 4441 1381 3981 
Q 1084 3522 1075 2569 
z
" transform="scale(0.015625)"/>
       </defs>
       <use xlink:href="#DejaVuSerif-30" transform="translate(0 0.78125)"/>
       <use xlink:href="#DejaVuSerif-2e" transform="translate(63.623047 0.78125)"/>
       <use xlink:href="#DejaVuSerif-36" transform="translate(95.410156 0.78125)"/>
       <use xlink:href="#DejaVuSerif-30" transform="translate(159.033203 0.78125)"/>
      </g>
     </g>
    </g>
    <g id="xtick_6">
     <g id="line2d_6">
      <g>
       <use xlink:href="#m83828d9982" x="187.342557" y="187.249448" style="stroke: #000000"/>
      </g>
     </g>
     <g id="text_6">
      <!-- $\mathdefault{0.65}$ -->
      <g transform="translate(177.307557 197.588041) scale(0.09 -0.09)">
       <use xlink:href="#DejaVuSerif-30" transform="translate(0 0.78125)"/>
       <use xlink:href="#DejaVuSerif-2e" transform="translate(63.623047 0.78125)"/>
       <use xlink:href="#DejaVuSerif-36" transform="translate(95.410156 0.78125)"/>
       <use xlink:href="#DejaVuSerif-35" transform="translate(159.033203 0.78125)"/>
      </g>
     </g>
    </g>
    <g id="xtick_7">
     <g id="line2d_7">
      <g>
       <use xlink:href="#m83828d9982" x="216.594958" y="187.249448" style="stroke: #000000"/>
      </g>
     </g>
     <g id="text_7">
      <!-- $\mathdefault{0.70}$ -->
      <g transform="translate(206.559958 197.588041) scale(0.09 -0.09)">
       <defs>
        <path id="DejaVuSerif-37" d="M 3609 4347 
L 1784 0 
L 1319 0 
L 3059 4153 
L 903 4153 
L 903 3578 
L 538 3578 
L 538 4666 
L 3609 4666 
L 3609 4347 
z
" transform="scale(0.015625)"/>
       </defs>
       <use xlink:href="#DejaVuSerif-30" transform="translate(0 0.78125)"/>
       <use xlink:href="#DejaVuSerif-2e" transform="translate(63.623047 0.78125)"/>
       <use xlink:href="#DejaVuSerif-37" transform="translate(95.410156 0.78125)"/>
       <use xlink:href="#DejaVuSerif-30" transform="translate(159.033203 0.78125)"/>
      </g>
     </g>
    </g>
    <g id="xtick_8">
     <g id="line2d_8">
      <g>
       <use xlink:href="#m83828d9982" x="245.847359" y="187.249448" style="stroke: #000000"/>
      </g>
     </g>
     <g id="text_8">
      <!-- $\mathdefault{0.75}$ -->
      <g transform="translate(235.812359 197.588041) scale(0.09 -0.09)">
       <use xlink:href="#DejaVuSerif-30" transform="translate(0 0.78125)"/>
       <use xlink:href="#DejaVuSerif-2e" transform="translate(63.623047 0.78125)"/>
       <use xlink:href="#DejaVuSerif-37" transform="translate(95.410156 0.78125)"/>
       <use xlink:href="#DejaVuSerif-35" transform="translate(159.033203 0.78125)"/>
      </g>
     </g>
    </g>
    <g id="xtick_9">
     <g id="line2d_9">
      <g>
       <use xlink:href="#m83828d9982" x="275.09976" y="187.249448" style="stroke: #000000"/>
      </g>
     </g>
     <g id="text_9">
      <!-- $\mathdefault{0.80}$ -->
      <g transform="translate(265.19976 197.588041) scale(0.09 -0.09)">
       <defs>
        <path id="DejaVuSerif-38" d="M 2981 1275 
Q 2981 1775 2732 2051 
Q 2484 2328 2034 2328 
Q 1584 2328 1336 2051 
Q 1088 1775 1088 1275 
Q 1088 772 1336 495 
Q 1584 219 2034 219 
Q 2484 219 2732 495 
Q 2981 772 2981 1275 
z
M 2853 3541 
Q 2853 3966 2637 4203 
Q 2422 4441 2034 4441 
Q 1650 4441 1433 4203 
Q 1216 3966 1216 3541 
Q 1216 3113 1433 2875 
Q 1650 2638 2034 2638 
Q 2422 2638 2637 2875 
Q 2853 3113 2853 3541 
z
M 2516 2484 
Q 3047 2413 3344 2092 
Q 3641 1772 3641 1275 
Q 3641 619 3225 264 
Q 2809 -91 2034 -91 
Q 1263 -91 845 264 
Q 428 619 428 1275 
Q 428 1772 725 2092 
Q 1022 2413 1556 2484 
Q 1084 2569 832 2842 
Q 581 3116 581 3541 
Q 581 4103 968 4426 
Q 1356 4750 2034 4750 
Q 2713 4750 3100 4426 
Q 3488 4103 3488 3541 
Q 3488 3116 3236 2842 
Q 2984 2569 2516 2484 
z
" transform="scale(0.015625)"/>
       </defs>
       <use xlink:href="#DejaVuSerif-30" transform="translate(0 0.78125)"/>
       <use xlink:href="#DejaVuSerif-2e" transform="translate(63.623047 0.78125)"/>
       <use xlink:href="#DejaVuSerif-38" transform="translate(91.785156 0.78125)"/>
       <use xlink:href="#DejaVuSerif-30" transform="translate(155.408203 0.78125)"/>
      </g>
     </g>
    </g>
    <g id="text_10">
     <!-- $\sin^2\theta_{23}$ -->
     <g transform="translate(141.710156 211.128041) scale(0.09 -0.09)">
      <defs>
       <path id="DejaVuSerif-73" d="M 359 184 
L 359 959 
L 691 959 
Q 703 588 923 403 
Q 1144 219 1575 219 
Q 1963 219 2166 364 
Q 2369 509 2369 788 
Q 2369 1006 2220 1140 
Q 2072 1275 1594 1428 
L 1178 1569 
Q 750 1706 558 1912 
Q 366 2119 366 2438 
Q 366 2894 700 3153 
Q 1034 3413 1625 3413 
Q 1888 3413 2178 3344 
Q 2469 3275 2778 3144 
L 2778 2419 
L 2447 2419 
Q 2434 2741 2221 2922 
Q 2009 3103 1644 3103 
Q 1281 3103 1095 2975 
Q 909 2847 909 2591 
Q 909 2381 1050 2254 
Q 1191 2128 1613 1997 
L 2069 1856 
Q 2541 1709 2748 1489 
Q 2956 1269 2956 922 
Q 2956 450 2595 179 
Q 2234 -91 1600 -91 
Q 1278 -91 972 -22 
Q 666 47 359 184 
z
" transform="scale(0.015625)"/>
       <path id="DejaVuSerif-69" d="M 622 4353 
Q 622 4497 726 4603 
Q 831 4709 978 4709 
Q 1122 4709 1226 4603 
Q 1331 4497 1331 4353 
Q 1331 4206 1228 4103 
Q 1125 4000 978 4000 
Q 831 4000 726 4103 
Q 622 4206 622 4353 
z
M 1356 331 
L 1900 331 
L 1900 0 
L 231 0 
L 231 331 
L 781 331 
L 781 2988 
L 231 2988 
L 231 3322 
L 1356 3322 
L 1356 331 
z
" transform="scale(0.015625)"/>
       <path id="DejaVuSerif-6e" d="M 263 0 
L 263 331 
L 781 331 
L 781 2988 
L 231 2988 
L 231 3322 
L 1356 3322 
L 1356 2731 
Q 1516 3069 1770 3241 
Q 2025 3413 2363 3413 
Q 2913 3413 3172 3097 
Q 3431 2781 3431 2113 
L 3431 331 
L 3944 331 
L 3944 0 
L 2356 0 
L 2356 331 
L 2853 331 
L 2853 1931 
Q 2853 2541 2703 2767 
Q 2553 2994 2175 2994 
Q 1775 2994 1565 2701 
Q 1356 2409 1356 1850 
L 1356 331 
L 1856 331 
L 1856 0 
L 263 0 
z
" transform="scale(0.015625)"/>
       <path id="DejaVuSerif-32" d="M 819 3553 
L 469 3553 
L 469 4384 
Q 803 4563 1142 4656 
Q 1481 4750 1806 4750 
Q 2534 4750 2956 4397 
Q 3378 4044 3378 3438 
Q 3378 2753 2422 1800 
Q 2347 1728 2309 1691 
L 1131 513 
L 3078 513 
L 3078 1088 
L 3444 1088 
L 3444 0 
L 434 0 
L 434 341 
L 1850 1753 
Q 2319 2222 2519 2614 
Q 2719 3006 2719 3438 
Q 2719 3909 2473 4175 
Q 2228 4441 1797 4441 
Q 1350 4441 1106 4219 
Q 863 3997 819 3553 
z
" transform="scale(0.015625)"/>
       <path id="DejaVuSerif-Italic-3b8" d="M 2888 2600 
Q 3059 3603 2947 4113 
Q 2822 4678 2359 4678 
Q 1900 4678 1553 4113 
Q 1244 3603 1025 2600 
L 2888 2600 
z
M 2822 2266 
L 959 2266 
Q 791 1269 903 759 
Q 1031 191 1488 191 
Q 1947 191 2294 759 
Q 2603 1269 2822 2266 
z
M 2409 4931 
Q 3138 4931 3444 4248 
Q 3750 3566 3529 2433 
Q 3309 1300 2734 615 
Q 2159 -69 1434 -69 
Q 713 -69 406 615 
Q 100 1300 320 2433 
Q 541 3566 1112 4248 
Q 1684 4931 2409 4931 
z
" transform="scale(0.015625)"/>
       <path id="DejaVuSerif-33" d="M 622 4469 
Q 988 4606 1323 4678 
Q 1659 4750 1953 4750 
Q 2638 4750 3022 4454 
Q 3406 4159 3406 3634 
Q 3406 3213 3140 2930 
Q 2875 2647 2388 2547 
Q 2963 2466 3280 2130 
Q 3597 1794 3597 1259 
Q 3597 606 3158 257 
Q 2719 -91 1894 -91 
Q 1528 -91 1179 -12 
Q 831 66 488 225 
L 488 1131 
L 838 1131 
Q 869 681 1141 450 
Q 1413 219 1906 219 
Q 2384 219 2661 495 
Q 2938 772 2938 1253 
Q 2938 1803 2653 2086 
Q 2369 2369 1819 2369 
L 1522 2369 
L 1522 2688 
L 1678 2688 
Q 2225 2688 2498 2914 
Q 2772 3141 2772 3597 
Q 2772 4006 2547 4223 
Q 2322 4441 1900 4441 
Q 1478 4441 1245 4241 
Q 1013 4041 972 3647 
L 622 3647 
L 622 4469 
z
" transform="scale(0.015625)"/>
      </defs>
      <use xlink:href="#DejaVuSerif-73" transform="translate(0 0.7125)"/>
      <use xlink:href="#DejaVuSerif-69" transform="translate(51.318359 0.7125)"/>
      <use xlink:href="#DejaVuSerif-6e" transform="translate(83.300781 0.7125)"/>
      <use xlink:href="#DejaVuSerif-32" transform="translate(148.613438 37.046875) scale(0.7)"/>
      <use xlink:href="#DejaVuSerif-Italic-3b8" transform="translate(211.549235 0.7125)"/>
      <use xlink:href="#DejaVuSerif-32" transform="translate(271.754313 -14.859375) scale(0.7)"/>
      <use xlink:href="#DejaVuSerif-33" transform="translate(316.290446 -14.859375) scale(0.7)"/>
     </g>
    </g>
   </g>
   <g id="matplotlib.axis_2">
    <g id="ytick_1">
     <g id="line2d_10">
      <defs>
       <path id="mdb1944a429" d="M 0 0 
L 4 0 
" style="stroke: #000000"/>
      </defs>
      <g>
       <use xlink:href="#mdb1944a429" x="41.080552" y="182.69792" style="stroke: #000000"/>
      </g>
     </g>
     <g id="text_11">
      <!-- $\mathdefault{−1.5}$ -->
      <g transform="translate(15.710552 186.117216) scale(0.09 -0.09)">
       <defs>
        <path id="DejaVuSerif-2212" d="M 678 2259 
L 4684 2259 
L 4684 1753 
L 678 1753 
L 678 2259 
z
" transform="scale(0.015625)"/>
        <path id="DejaVuSerif-31" d="M 909 0 
L 909 331 
L 1722 331 
L 1722 4213 
L 781 3603 
L 781 4013 
L 1919 4750 
L 2350 4750 
L 2350 331 
L 3163 331 
L 3163 0 
L 909 0 
z
" transform="scale(0.015625)"/>
       </defs>
       <use xlink:href="#DejaVuSerif-2212" transform="translate(0 0.78125)"/>
       <use xlink:href="#DejaVuSerif-31" transform="translate(83.789062 0.78125)"/>
       <use xlink:href="#DejaVuSerif-2e" transform="translate(147.412109 0.78125)"/>
       <use xlink:href="#DejaVuSerif-35" transform="translate(179.199219 0.78125)"/>
      </g>
     </g>
    </g>
    <g id="ytick_2">
     <g id="line2d_11">
      <g>
       <use xlink:href="#mdb1944a429" x="41.080552" y="150.552693" style="stroke: #000000"/>
      </g>
     </g>
     <g id="text_12">
      <!-- $\mathdefault{−1.0}$ -->
      <g transform="translate(15.710552 153.97199) scale(0.09 -0.09)">
       <use xlink:href="#DejaVuSerif-2212" transform="translate(0 0.78125)"/>
       <use xlink:href="#DejaVuSerif-31" transform="translate(83.789062 0.78125)"/>
       <use xlink:href="#DejaVuSerif-2e" transform="translate(147.412109 0.78125)"/>
       <use xlink:href="#DejaVuSerif-30" transform="translate(179.199219 0.78125)"/>
      </g>
     </g>
    </g>
    <g id="ytick_3">
     <g id="line2d_12">
      <g>
       <use xlink:href="#mdb1944a429" x="41.080552" y="118.407466" style="stroke: #000000"/>
      </g>
     </g>
     <g id="text_13">
      <!-- $\mathdefault{−0.5}$ -->
      <g transform="translate(15.710552 121.826763) scale(0.09 -0.09)">
       <use xlink:href="#DejaVuSerif-2212" transform="translate(0 0.78125)"/>
       <use xlink:href="#DejaVuSerif-30" transform="translate(83.789062 0.78125)"/>
       <use xlink:href="#DejaVuSerif-2e" transform="translate(147.412109 0.78125)"/>
       <use xlink:href="#DejaVuSerif-35" transform="translate(179.199219 0.78125)"/>
      </g>
     </g>
    </g>
    <g id="ytick_4">
     <g id="line2d_13">
      <g>
       <use xlink:href="#mdb1944a429" x="41.080552" y="86.262239" style="stroke: #000000"/>
      </g>
     </g>
     <g id="text_14">
      <!-- $\mathdefault{0.0}$ -->
      <g transform="translate(23.180552 89.681536) scale(0.09 -0.09)">
       <use xlink:href="#DejaVuSerif-30" transform="translate(0 0.78125)"/>
       <use xlink:href="#DejaVuSerif-2e" transform="translate(63.623047 0.78125)"/>
       <use xlink:href="#DejaVuSerif-30" transform="translate(95.410156 0.78125)"/>
      </g>
     </g>
    </g>
    <g id="ytick_5">
     <g id="line2d_14">
      <g>
       <use xlink:href="#mdb1944a429" x="41.080552" y="54.117012" style="stroke: #000000"/>
      </g>
     </g>
     <g id="text_15">
      <!-- $\mathdefault{0.5}$ -->
      <g transform="translate(23.180552 57.536309) scale(0.09 -0.09)">
       <use xlink:href="#DejaVuSerif-30" transform="translate(0 0.78125)"/>
       <use xlink:href="#DejaVuSerif-2e" transform="translate(63.623047 0.78125)"/>
       <use xlink:href="#DejaVuSerif-35" transform="translate(95.410156 0.78125)"/>
      </g>
     </g>
    </g>
    <g id="ytick_6">
     <g id="line2d_15">
      <g>
       <use xlink:href="#mdb1944a429" x="41.080552" y="21.971785" style="stroke: #000000"/>
      </g>
     </g>
     <g id="text_16">
      <!-- $\mathdefault{1.0}$ -->
      <g transform="translate(23.180552 25.391082) scale(0.09 -0.09)">
       <use xlink:href="#DejaVuSerif-31" transform="translate(0 0.78125)"/>
       <use xlink:href="#DejaVuSerif-2e" transform="translate(63.623047 0.78125)"/>
       <use xlink:href="#DejaVuSerif-30" transform="translate(95.410156 0.78125)"/>
      </g>
     </g>
    </g>
    <g id="text_17">
     <!-- $\delta_{\mathrm{CP}}$ -->
     <g transform="translate(9.838834 108.776094) rotate(-90) scale(0.09 -0.09)">
      <defs>
       <path id="DejaVuSerif-Italic-3b4" d="M 1306 3238 
Q 1109 3319 1041 3469 
Q 956 3644 1041 4072 
Q 1119 4475 1466 4688 
Q 1813 4897 2425 4897 
Q 2594 4897 2909 4847 
Q 3225 4794 3556 4697 
L 3434 4081 
L 3084 4003 
Q 3100 4281 2903 4425 
Q 2706 4566 2412 4566 
Q 2119 4566 1872 4413 
Q 1613 4250 1581 4044 
Q 1538 3747 1619 3647 
Q 1816 3413 2122 3413 
Q 2850 3413 3195 2934 
Q 3541 2456 3387 1662 
Q 3234 869 2701 389 
Q 2169 -91 1441 -91 
Q 716 -91 369 389 
Q 22 869 175 1662 
Q 328 2456 863 2934 
Q 1097 3144 1306 3238 
z
M 1500 219 
Q 1963 219 2270 584 
Q 2578 950 2715 1662 
Q 2853 2375 2689 2739 
Q 2525 3103 2062 3103 
Q 1600 3103 1292 2739 
Q 984 2375 846 1662 
Q 709 950 875 584 
Q 1041 219 1500 219 
z
" transform="scale(0.015625)"/>
       <path id="DejaVuSerif-43" d="M 4513 1234 
Q 4306 581 3820 245 
Q 3334 -91 2591 -91 
Q 2134 -91 1743 65 
Q 1353 222 1050 525 
Q 700 875 529 1320 
Q 359 1766 359 2328 
Q 359 3416 987 4083 
Q 1616 4750 2644 4750 
Q 3025 4750 3456 4650 
Q 3888 4550 4384 4347 
L 4384 3272 
L 4031 3272 
Q 3916 3859 3567 4137 
Q 3219 4416 2591 4416 
Q 1844 4416 1459 3886 
Q 1075 3356 1075 2328 
Q 1075 1303 1459 773 
Q 1844 244 2591 244 
Q 3113 244 3450 492 
Q 3788 741 3938 1234 
L 4513 1234 
z
" transform="scale(0.015625)"/>
       <path id="DejaVuSerif-50" d="M 1581 2375 
L 2406 2375 
Q 2872 2375 3115 2626 
Q 3359 2878 3359 3353 
Q 3359 3831 3115 4081 
Q 2872 4331 2406 4331 
L 1581 4331 
L 1581 2375 
z
M 353 0 
L 353 331 
L 947 331 
L 947 4331 
L 353 4331 
L 353 4666 
L 2559 4666 
Q 3259 4666 3668 4311 
Q 4078 3956 4078 3353 
Q 4078 2753 3668 2397 
Q 3259 2041 2559 2041 
L 1581 2041 
L 1581 331 
L 2303 331 
L 2303 0 
L 353 0 
z
" transform="scale(0.015625)"/>
      </defs>
      <use xlink:href="#DejaVuSerif-Italic-3b4" transform="translate(0 0.484375)"/>
      <use xlink:href="#DejaVuSerif-43" transform="translate(60.205078 -15.0875) scale(0.7)"/>
      <use xlink:href="#DejaVuSerif-50" transform="translate(113.764648 -15.0875) scale(0.7)"/>
     </g>
    </g>
   </g>
   <g id="line2d_16">
    <path d="M 77.641234 67.054752 
L 75.536377 63.620618 
L 74.105931 60.186484 
L 75.685011 56.75235 
L 78.523626 54.383629 
L 80.126877 53.318216 
L 83.20401 52.104252 
L 87.884394 50.971546 
L 92.564778 50.732177 
L 97.245162 50.777662 
L 101.925546 51.030281 
L 106.605931 51.437714 
L 111.286315 51.963742 
L 115.966699 52.582733 
L 120.647083 53.276236 
L 120.896512 53.318216 
L 125.327467 54.235632 
L 130.007851 55.246877 
L 134.688236 56.290293 
L 136.655176 56.75235 
L 139.36862 57.521469 
L 144.049004 58.879597 
L 148.544411 60.186484 
L 148.729388 60.25066 
L 153.409772 61.935432 
L 158.090156 63.591671 
L 158.169234 63.620618 
L 162.77054 65.594852 
L 166.217151 67.054752 
L 167.450925 67.664323 
L 172.131309 69.9898 
L 173.127165 70.488886 
L 176.811693 72.620563 
L 179.064096 73.923021 
L 181.492077 75.535986 
L 184.219141 77.357155 
L 186.172461 78.849326 
L 188.686851 80.791289 
L 190.852845 82.69869 
L 192.558256 84.225423 
L 195.533229 87.257226 
L 195.919601 87.659557 
L 198.744833 91.093691 
L 200.213614 93.153831 
L 201.16195 94.527825 
L 203.144143 97.96196 
L 204.791947 101.396094 
L 204.893998 101.673445 
L 206.000792 104.830228 
L 206.869368 108.264362 
L 207.398064 111.698496 
L 207.579049 115.13263 
L 207.404834 118.566764 
L 206.868828 122.000899 
L 205.965676 125.435033 
L 204.893998 128.327542 
L 204.671022 128.869167 
L 202.856688 132.303301 
L 200.629315 135.737435 
L 200.213614 136.278983 
L 197.738962 139.171569 
L 195.533229 141.405276 
L 194.198635 142.605704 
L 190.852845 145.263995 
L 189.739285 146.039838 
L 186.172461 148.264814 
L 183.924967 149.473972 
L 181.492077 150.657244 
L 176.811693 152.573328 
L 175.793356 152.908106 
L 172.131309 154.005588 
L 167.450925 155.064007 
L 162.77054 155.763756 
L 158.090156 156.083067 
L 153.409772 155.996121 
L 148.729388 155.472346 
L 144.049004 154.475521 
L 139.36862 152.962659 
L 139.24305 152.908106 
L 134.688236 150.656268 
L 132.823799 149.473972 
L 130.007851 147.4377 
L 128.430497 146.039838 
L 125.327467 142.907479 
L 125.075885 142.605704 
L 122.517919 139.171569 
L 120.647083 136.368106 
L 120.283592 135.737435 
L 118.454911 132.303301 
L 116.736393 128.869167 
L 115.966699 127.28356 
L 115.174348 125.435033 
L 113.701905 122.000899 
L 112.184295 118.566764 
L 111.286315 116.642594 
L 110.653194 115.13263 
L 109.10165 111.698496 
L 107.389674 108.264362 
L 106.605931 106.841295 
L 105.596028 104.830228 
L 103.671202 101.396094 
L 101.925546 98.633899 
L 101.534191 97.96196 
L 99.323376 94.527825 
L 97.245162 91.666361 
L 96.858058 91.093691 
L 94.327186 87.659557 
L 92.564778 85.493197 
L 91.595659 84.225423 
L 88.769994 80.791289 
L 87.884394 79.765814 
L 85.911055 77.357155 
L 83.20401 74.213086 
L 82.96596 73.923021 
L 80.229698 70.488886 
L 78.523626 68.255413 
L 77.641234 67.054752 
" clip-path="url(#p5ca389c0b5)" style="fill: none; stroke: #000000; stroke-opacity: 0.8; stroke-linecap: square"/>
   </g>
   <g id="line2d_17">
    <path d="M 101.3262 94.527825 
L 100.17946 91.093691 
L 99.181343 87.659557 
L 98.400641 84.225423 
L 97.930545 80.791289 
L 97.895321 77.357155 
L 98.458489 73.923021 
L 99.832315 70.488886 
L 101.925546 67.550624 
L 102.360683 67.054752 
L 106.605931 63.943646 
L 107.17743 63.620618 
L 111.286315 61.994604 
L 115.966699 60.664601 
L 118.528483 60.186484 
L 120.647083 59.891749 
L 125.327467 59.539994 
L 130.007851 59.461628 
L 134.688236 59.626024 
L 139.36862 60.005563 
L 140.833501 60.186484 
L 144.049004 60.674885 
L 148.729388 61.592401 
L 153.409772 62.683236 
L 156.922818 63.620618 
L 158.090156 64.000521 
L 162.77054 65.700845 
L 166.229602 67.054752 
L 167.450925 67.636308 
L 172.131309 70.016731 
L 173.007636 70.488886 
L 176.811693 72.974895 
L 178.200115 73.923021 
L 181.492077 76.663112 
L 182.292677 77.357155 
L 185.492375 80.791289 
L 186.172461 81.716217 
L 187.941064 84.225423 
L 189.800555 87.659557 
L 190.852845 90.361644 
L 191.125364 91.093691 
L 191.912032 94.527825 
L 192.262649 97.96196 
L 192.197493 101.396094 
L 191.736481 104.830228 
L 190.899633 108.264362 
L 190.852845 108.401826 
L 189.591639 111.698496 
L 187.906707 115.13263 
L 186.172461 118.066853 
L 185.83713 118.566764 
L 183.197895 122.000899 
L 181.492077 123.974768 
L 180.044436 125.435033 
L 176.811693 128.405313 
L 176.222307 128.869167 
L 172.131309 131.853077 
L 171.393422 132.303301 
L 167.450925 134.559099 
L 164.90504 135.737435 
L 162.77054 136.67117 
L 158.090156 138.233868 
L 153.970753 139.171569 
L 153.409772 139.293302 
L 148.729388 139.805024 
L 144.049004 139.788628 
L 139.36862 139.196554 
L 139.271081 139.171569 
L 134.688236 137.899571 
L 130.007851 135.851048 
L 129.819162 135.737435 
L 125.327467 132.815334 
L 124.72083 132.303301 
L 120.923274 128.869167 
L 120.647083 128.604838 
L 117.962753 125.435033 
L 115.966699 122.953223 
L 115.327783 122.000899 
L 113.092813 118.566764 
L 111.286315 115.712548 
L 110.973185 115.13263 
L 109.139167 111.698496 
L 107.3314 108.264362 
L 106.605931 106.873544 
L 105.68145 104.830228 
L 104.151812 101.396094 
L 102.663067 97.96196 
L 101.925546 96.179928 
L 101.3262 94.527825 
" clip-path="url(#p5ca389c0b5)" style="fill: none; stroke: #4067b1; stroke-opacity: 0.8; stroke-linecap: square"/>
   </g>
   <g id="line2d_18">
    <path d="M 107.445116 108.264362 
L 106.892877 104.830228 
L 107.722058 101.396094 
L 109.260701 97.96196 
L 111.221671 94.527825 
L 111.286315 94.442992 
L 113.968127 91.093691 
L 115.966699 88.830813 
L 117.055898 87.659557 
L 120.617293 84.225423 
L 120.647083 84.200423 
L 124.902153 80.791289 
L 125.327467 80.481901 
L 129.838803 77.357155 
L 130.007851 77.251242 
L 134.688236 74.56183 
L 135.884692 73.923021 
L 139.36862 72.273877 
L 143.422505 70.488886 
L 144.049004 70.244011 
L 148.729388 68.773332 
L 153.409772 67.567999 
L 156.637949 67.054752 
L 158.090156 66.856918 
L 162.77054 66.797759 
L 164.614194 67.054752 
L 167.450925 67.776816 
L 171.384651 70.488886 
L 172.131309 72.589743 
L 172.431047 73.923021 
L 172.131309 75.34146 
L 171.677112 77.357155 
L 169.784102 80.791289 
L 167.450925 83.943448 
L 167.229847 84.225423 
L 163.853515 87.659557 
L 162.77054 88.636268 
L 159.900398 91.093691 
L 158.090156 92.519107 
L 155.397803 94.527825 
L 153.409772 95.922887 
L 150.335723 97.96196 
L 148.729388 98.982665 
L 144.699374 101.396094 
L 144.049004 101.775039 
L 139.36862 104.268889 
L 138.202154 104.830228 
L 134.688236 106.494817 
L 130.60281 108.264362 
L 130.007851 108.521513 
L 125.327467 110.133026 
L 120.647083 111.427613 
L 118.633322 111.698496 
L 115.966699 112.061612 
L 111.76003 111.698496 
L 111.286315 111.626179 
L 107.445116 108.264362 
" clip-path="url(#p5ca389c0b5)" style="fill: none; stroke: #6ccef5; stroke-opacity: 0.8; stroke-linecap: square"/>
   </g>
   <g id="line2d_19">
    <path d="M 107.541599 108.264362 
L 107.538489 104.830228 
L 109.034395 101.396094 
L 111.074022 97.96196 
L 111.286315 97.703574 
L 113.98467 94.527825 
L 115.966699 92.392666 
L 117.212655 91.093691 
L 120.647083 87.841479 
L 120.84556 87.659557 
L 125.063243 84.225423 
L 125.327467 84.028897 
L 129.79672 80.791289 
L 130.007851 80.650531 
L 134.688236 77.678234 
L 135.21871 77.357155 
L 139.36862 75.096062 
L 141.607285 73.923021 
L 144.049004 72.769587 
L 148.729388 70.689019 
L 149.282803 70.488886 
L 153.409772 69.172109 
L 158.090156 67.969908 
L 162.77054 67.294388 
L 167.450925 67.877847 
L 170.625681 70.488886 
L 170.522822 73.923021 
L 168.805952 77.357155 
L 167.450925 79.109494 
L 166.100385 80.791289 
L 162.786209 84.225423 
L 162.77054 84.239032 
L 158.711253 87.659557 
L 158.090156 88.141334 
L 154.166864 91.093691 
L 153.409772 91.628417 
L 149.176449 94.527825 
L 148.729388 94.819946 
L 144.049004 97.745312 
L 143.680297 97.96196 
L 139.36862 100.39517 
L 137.515918 101.396094 
L 134.688236 102.885885 
L 130.817238 104.830228 
L 130.007851 105.232247 
L 125.327467 107.234175 
L 122.573128 108.264362 
L 120.647083 108.984401 
L 115.966699 110.193112 
L 111.286315 110.539618 
L 107.541599 108.264362 
" clip-path="url(#p5ca389c0b5)" style="fill: none; stroke: #b9123e; stroke-opacity: 0.8; stroke-linecap: square"/>
   </g>
   <g id="patch_3">
    <path d="M 41.080552 187.249447 
L 41.080552 15.54274 
" style="fill: none; stroke: #000000; stroke-linejoin: miter; stroke-linecap: square"/>
   </g>
   <g id="patch_4">
    <path d="M 275.09976 187.249447 
L 275.09976 15.54274 
" style="fill: none; stroke: #000000; stroke-linejoin: miter; stroke-linecap: square"/>
   </g>
   <g id="patch_5">
    <path d="M 41.080553 187.249448 
L 275.09976 187.249448 
" style="fill: none; stroke: #000000; stroke-linejoin: miter; stroke-linecap: square"/>
   </g>
   <g id="patch_6">
    <path d="M 41.080553 15.54274 
L 275.09976 15.54274 
" style="fill: none; stroke: #000000; stroke-linejoin: miter; stroke-linecap: square"/>
   </g>
   <g id="legend_1">
    <g id="line2d_20">
     <path d="M 52.387656 7.87899 
L 60.387656 7.87899 
L 68.387656 7.87899 
" style="fill: none; stroke: #000000; stroke-opacity: 0.8; stroke-linecap: square"/>
    </g>
    <g id="text_18">
     <!-- 100% -->
     <g transform="translate(70.787656 10.67899) scale(0.08 -0.08)">
      <defs>
       <path id="DejaVuSerif-25" d="M 1434 4459 
Q 1159 4459 1004 4200 
Q 850 3941 850 3475 
Q 850 3016 1008 2753 
Q 1166 2491 1434 2491 
Q 1700 2491 1854 2752 
Q 2009 3013 2009 3475 
Q 2009 3938 1854 4198 
Q 1700 4459 1434 4459 
z
M 4653 2169 
Q 4381 2169 4226 1906 
Q 4072 1644 4072 1178 
Q 4072 719 4228 458 
Q 4384 197 4653 197 
Q 4922 197 5075 458 
Q 5228 719 5228 1178 
Q 5228 1641 5073 1905 
Q 4919 2169 4653 2169 
z
M 4653 2450 
Q 5147 2450 5437 2106 
Q 5728 1763 5728 1178 
Q 5728 594 5436 251 
Q 5144 -91 4653 -91 
Q 4153 -91 3862 251 
Q 3572 594 3572 1178 
Q 3572 1766 3864 2108 
Q 4156 2450 4653 2450 
z
M 4263 4750 
L 4738 4750 
L 1819 -91 
L 1344 -91 
L 4263 4750 
z
M 1428 4750 
Q 1922 4750 2215 4408 
Q 2509 4066 2509 3481 
Q 2509 2891 2217 2550 
Q 1925 2209 1428 2209 
Q 931 2209 642 2551 
Q 353 2894 353 3481 
Q 353 4063 643 4406 
Q 934 4750 1428 4750 
z
" transform="scale(0.015625)"/>
      </defs>
      <use xlink:href="#DejaVuSerif-31"/>
      <use xlink:href="#DejaVuSerif-30" x="63.623047"/>
      <use xlink:href="#DejaVuSerif-30" x="127.246094"/>
      <use xlink:href="#DejaVuSerif-25" x="190.869141"/>
     </g>
    </g>
    <g id="line2d_21">
     <path d="M 100.058906 7.87899 
L 108.058906 7.87899 
L 116.058906 7.87899 
" style="fill: none; stroke: #4067b1; stroke-opacity: 0.8; stroke-linecap: square"/>
    </g>
    <g id="text_19">
     <!-- 50% -->
     <g transform="translate(118.458906 10.67899) scale(0.08 -0.08)">
      <use xlink:href="#DejaVuSerif-35"/>
      <use xlink:href="#DejaVuSerif-30" x="63.623047"/>
      <use xlink:href="#DejaVuSerif-25" x="127.246094"/>
     </g>
    </g>
    <g id="line2d_22">
     <path d="M 142.640156 7.87899 
L 150.640156 7.87899 
L 158.640156 7.87899 
" style="fill: none; stroke: #6ccef5; stroke-opacity: 0.8; stroke-linecap: square"/>
    </g>
    <g id="text_20">
     <!-- 10% -->
     <g transform="translate(161.040156 10.67899) scale(0.08 -0.08)">
      <use xlink:href="#DejaVuSerif-31"/>
      <use xlink:href="#DejaVuSerif-30" x="63.623047"/>
      <use xlink:href="#DejaVuSerif-25" x="127.246094"/>
     </g>
    </g>
    <g id="line2d_23">
     <path d="M 185.221406 7.87899 
L 193.221406 7.87899 
L 201.221406 7.87899 
" style="fill: none; stroke: #b9123e; stroke-opacity: 0.8; stroke-linecap: square"/>
    </g>
    <g id="text_21">
     <!-- 0% -->
     <g transform="translate(203.621406 10.67899) scale(0.08 -0.08)">
      <use xlink:href="#DejaVuSerif-30"/>
      <use xlink:href="#DejaVuSerif-25" x="63.623047"/>
     </g>
    </g>
    <g id="PathCollection_6">
     <g>
      <use xlink:href="#mcb3d2e3e12" x="230.712656" y="8.57899" style="stroke: #000000"/>
     </g>
    </g>
    <g id="text_22">
     <!-- Truth -->
     <g transform="translate(241.112656 10.67899) scale(0.08 -0.08)">
      <defs>
       <path id="DejaVuSerif-54" d="M 1222 0 
L 1222 331 
L 1819 331 
L 1819 4294 
L 447 4294 
L 447 3566 
L 63 3566 
L 63 4666 
L 4206 4666 
L 4206 3566 
L 3822 3566 
L 3822 4294 
L 2450 4294 
L 2450 331 
L 3047 331 
L 3047 0 
L 1222 0 
z
" transform="scale(0.015625)"/>
       <path id="DejaVuSerif-72" d="M 3059 3328 
L 3059 2497 
L 2728 2497 
Q 2713 2744 2591 2866 
Q 2469 2988 2234 2988 
Q 1809 2988 1582 2694 
Q 1356 2400 1356 1850 
L 1356 331 
L 2022 331 
L 2022 0 
L 263 0 
L 263 331 
L 781 331 
L 781 2994 
L 231 2994 
L 231 3322 
L 1356 3322 
L 1356 2731 
Q 1525 3078 1790 3245 
Q 2056 3413 2438 3413 
Q 2578 3413 2733 3391 
Q 2888 3369 3059 3328 
z
" transform="scale(0.015625)"/>
       <path id="DejaVuSerif-75" d="M 2266 3322 
L 3341 3322 
L 3341 331 
L 3884 331 
L 3884 0 
L 2766 0 
L 2766 588 
Q 2606 256 2353 82 
Q 2100 -91 1766 -91 
Q 1213 -91 952 223 
Q 691 538 691 1209 
L 691 2988 
L 172 2988 
L 172 3322 
L 1269 3322 
L 1269 1388 
Q 1269 781 1417 556 
Q 1566 331 1947 331 
Q 2347 331 2556 625 
Q 2766 919 2766 1478 
L 2766 2988 
L 2266 2988 
L 2266 3322 
z
" transform="scale(0.015625)"/>
       <path id="DejaVuSerif-74" d="M 691 2988 
L 184 2988 
L 184 3322 
L 691 3322 
L 691 4353 
L 1269 4353 
L 1269 3322 
L 2350 3322 
L 2350 2988 
L 1269 2988 
L 1269 878 
Q 1269 456 1350 337 
Q 1431 219 1650 219 
Q 1875 219 1978 351 
Q 2081 484 2088 781 
L 2522 781 
Q 2497 328 2275 118 
Q 2053 -91 1600 -91 
Q 1103 -91 897 129 
Q 691 350 691 878 
L 691 2988 
z
" transform="scale(0.015625)"/>
       <path id="DejaVuSerif-68" d="M 263 0 
L 263 331 
L 781 331 
L 781 4531 
L 231 4531 
L 231 4863 
L 1356 4863 
L 1356 2731 
Q 1516 3069 1770 3241 
Q 2025 3413 2363 3413 
Q 2913 3413 3172 3097 
Q 3431 2781 3431 2113 
L 3431 331 
L 3944 331 
L 3944 0 
L 2356 0 
L 2356 331 
L 2853 331 
L 2853 1931 
Q 2853 2541 2704 2764 
Q 2556 2988 2175 2988 
Q 1775 2988 1565 2697 
Q 1356 2406 1356 1850 
L 1356 331 
L 1856 331 
L 1856 0 
L 263 0 
z
" transform="scale(0.015625)"/>
      </defs>
      <use xlink:href="#DejaVuSerif-54"/>
      <use xlink:href="#DejaVuSerif-72" x="66.699219"/>
      <use xlink:href="#DejaVuSerif-75" x="114.501953"/>
      <use xlink:href="#DejaVuSerif-74" x="178.90625"/>
      <use xlink:href="#DejaVuSerif-68" x="219.091797"/>
     </g>
    </g>
   </g>
  </g>
 </g>
 <defs>
  <clipPath id="p5ca389c0b5">
   <rect x="41.080552" y="15.54274" width="234.019207" height="171.706708"/>
  </clipPath>
 </defs>
</svg>
